<svg height="7118" width="720" xmlns="http://www.w3.org/2000/svg">
<rect height="7118" fill="#555" width="720"></rect>
<text fill="#7f7" font-family="Courier New" font-size="12" xml:space="preserve">
<tspan x="10" y="26">└─┬ gulp-iconify@0.6.0 </tspan>
<tspan x="10" y="42">  ├─┬ del@1.1.1 </tspan>
<tspan x="10" y="58">  │ ├─┬ each-async@1.1.1 </tspan>
<tspan x="10" y="74">  │ │ ├── onetime@1.1.0 </tspan>
<tspan x="10" y="90">  │ │ └── set-immediate-shim@1.0.1 </tspan>
<tspan x="10" y="106">  │ ├─┬ globby@1.2.0 </tspan>
<tspan x="10" y="122">  │ │ ├── array-union@1.0.2 </tspan>
<tspan x="10" y="138">  │ │ ├── async@0.9.2 </tspan>
<tspan x="10" y="154">  │ │ ├─┬ glob@4.5.3 </tspan>
<tspan x="10" y="170">  │ │ │ └── minimatch@2.0.10 </tspan>
<tspan x="10" y="186">  │ │ └── object-assign@2.1.1 </tspan>
<tspan x="10" y="202">  │ ├── is-path-cwd@1.0.0 </tspan>
<tspan x="10" y="218">  │ ├─┬ is-path-in-cwd@1.0.0 </tspan>
<tspan x="10" y="234">  │ │ └─┬ is-path-inside@1.0.0 </tspan>
<tspan x="10" y="250">  │ │   └── path-is-inside@1.0.2 </tspan>
<tspan x="10" y="266">  │ ├── object-assign@2.1.1 </tspan>
<tspan x="10" y="282">  │ └─┬ rimraf@2.6.1 </tspan>
<tspan x="10" y="298">  │   └─┬ glob@7.1.1 </tspan>
<tspan x="10" y="314">  │     └── minimatch@3.0.3 </tspan>
<tspan x="10" y="330">  ├─┬ domain@0.0.1 </tspan>
<tspan x="10" y="346">  │ ├── co@3.1.0 </tspan>
<tspan x="10" y="362">  │ ├─┬ eventstore@1.12.2 </tspan>
<tspan x="10" y="378">  │ │ ├── async@2.1.4 </tspan>
<tspan x="10" y="394">  │ │ ├─┬ debug@2.6.0 </tspan>
<tspan x="10" y="410">  │ │ │ └── ms@0.7.2 </tspan>
<tspan x="10" y="426">  │ │ ├── dotty@0.0.2 </tspan>
<tspan x="10" y="442">  │ │ ├── jsondate@0.0.1 </tspan>
<tspan x="10" y="458">  │ │ ├── lodash@4.17.4 </tspan>
<tspan x="10" y="474">  │ │ ├── parent-require@1.0.0 </tspan>
<tspan x="10" y="490">  │ │ ├─┬ tolerance@1.0.0 </tspan>
<tspan x="10" y="506">  │ │ │ └── retry@0.10.1 </tspan>
<tspan x="10" y="522">  │ │ └── uuid@3.0.0 </tspan>
<tspan x="10" y="538">  │ ├── shortid@2.2.8 </tspan>
<tspan x="10" y="554">  │ ├─┬ should@4.6.5 </tspan>
<tspan x="10" y="570">  │ │ ├── should-equal@0.3.1 </tspan>
<tspan x="10" y="586">  │ │ ├── should-format@0.0.7 </tspan>
<tspan x="10" y="602">  │ │ └── should-type@0.0.4 </tspan>
<tspan x="10" y="618">  │ └── thunkify@2.1.2 </tspan>
<tspan x="10" y="634">  ├─┬ gulp@3.9.1 </tspan>
<tspan x="10" y="650">  │ ├── archy@1.0.0 </tspan>
<tspan x="10" y="666">  │ ├─┬ chalk@1.1.3 </tspan>
<tspan x="10" y="682">  │ │ ├── ansi-styles@2.2.1 </tspan>
<tspan x="10" y="698">  │ │ ├── escape-string-regexp@1.0.5 </tspan>
<tspan x="10" y="714">  │ │ ├─┬ has-ansi@2.0.0 </tspan>
<tspan x="10" y="730">  │ │ │ └── ansi-regex@2.1.1 </tspan>
<tspan x="10" y="746">  │ │ ├── strip-ansi@3.0.1 </tspan>
<tspan x="10" y="762">  │ │ └── supports-color@2.0.0 </tspan>
<tspan x="10" y="778">  │ ├── deprecated@0.0.1 </tspan>
<tspan x="10" y="794">  │ ├── interpret@1.0.2 </tspan>
<tspan x="10" y="810">  │ ├─┬ liftoff@2.3.0 </tspan>
<tspan x="10" y="826">  │ │ ├── extend@3.0.0 </tspan>
<tspan x="10" y="842">  │ │ ├─┬ findup-sync@0.4.3 </tspan>
<tspan x="10" y="858">  │ │ │ ├─┬ detect-file@0.1.0 </tspan>
<tspan x="10" y="874">  │ │ │ │ └── fs-exists-sync@0.1.0 </tspan>
<tspan x="10" y="890">  │ │ │ ├─┬ is-glob@2.0.1 </tspan>
<tspan x="10" y="906">  │ │ │ │ └── is-extglob@1.0.0 </tspan>
<tspan x="10" y="922">  │ │ │ ├─┬ micromatch@2.3.11 </tspan>
<tspan x="10" y="938">  │ │ │ │ ├─┬ arr-diff@2.0.0 </tspan>
<tspan x="10" y="954">  │ │ │ │ │ └── arr-flatten@1.0.1 </tspan>
<tspan x="10" y="970">  │ │ │ │ ├── array-unique@0.2.1 </tspan>
<tspan x="10" y="986">  │ │ │ │ ├─┬ braces@1.8.5 </tspan>
<tspan x="10" y="1002">  │ │ │ │ │ ├─┬ expand-range@1.8.2 </tspan>
<tspan x="10" y="1018">  │ │ │ │ │ │ └─┬ fill-range@2.2.3 </tspan>
<tspan x="10" y="1034">  │ │ │ │ │ │   ├── is-number@2.1.0 </tspan>
<tspan x="10" y="1050">  │ │ │ │ │ │   ├─┬ isobject@2.1.0 </tspan>
<tspan x="10" y="1066">  │ │ │ │ │ │   │ └── isarray@1.0.0 </tspan>
<tspan x="10" y="1082">  │ │ │ │ │ │   ├── randomatic@1.1.6 </tspan>
<tspan x="10" y="1098">  │ │ │ │ │ │   └── repeat-string@1.6.1 </tspan>
<tspan x="10" y="1114">  │ │ │ │ │ ├── preserve@0.2.0 </tspan>
<tspan x="10" y="1130">  │ │ │ │ │ └── repeat-element@1.1.2 </tspan>
<tspan x="10" y="1146">  │ │ │ │ ├─┬ expand-brackets@0.1.5 </tspan>
<tspan x="10" y="1162">  │ │ │ │ │ └── is-posix-bracket@0.1.1 </tspan>
<tspan x="10" y="1178">  │ │ │ │ ├── extglob@0.3.2 </tspan>
<tspan x="10" y="1194">  │ │ │ │ ├── filename-regex@2.0.0 </tspan>
<tspan x="10" y="1210">  │ │ │ │ ├─┬ kind-of@3.1.0 </tspan>
<tspan x="10" y="1226">  │ │ │ │ │ └── is-buffer@1.1.5 </tspan>
<tspan x="10" y="1242">  │ │ │ │ ├─┬ normalize-path@2.1.1 </tspan>
<tspan x="10" y="1258">  │ │ │ │ │ └── remove-trailing-separator@1.0.1 </tspan>
<tspan x="10" y="1274">  │ │ │ │ ├─┬ object.omit@2.0.1 </tspan>
<tspan x="10" y="1290">  │ │ │ │ │ ├─┬ for-own@0.1.5 </tspan>
<tspan x="10" y="1306">  │ │ │ │ │ │ └── for-in@1.0.2 </tspan>
<tspan x="10" y="1322">  │ │ │ │ │ └── is-extendable@0.1.1 </tspan>
<tspan x="10" y="1338">  │ │ │ │ ├─┬ parse-glob@3.0.4 </tspan>
<tspan x="10" y="1354">  │ │ │ │ │ ├─┬ glob-base@0.3.0 </tspan>
<tspan x="10" y="1370">  │ │ │ │ │ │ └── glob-parent@2.0.0 </tspan>
<tspan x="10" y="1386">  │ │ │ │ │ └── is-dotfile@1.0.2 </tspan>
<tspan x="10" y="1402">  │ │ │ │ └─┬ regex-cache@0.4.3 </tspan>
<tspan x="10" y="1418">  │ │ │ │   ├── is-equal-shallow@0.1.3 </tspan>
<tspan x="10" y="1434">  │ │ │ │   └── is-primitive@2.0.0 </tspan>
<tspan x="10" y="1450">  │ │ │ └─┬ resolve-dir@0.1.1 </tspan>
<tspan x="10" y="1466">  │ │ │   └─┬ global-modules@0.2.3 </tspan>
<tspan x="10" y="1482">  │ │ │     ├─┬ global-prefix@0.1.5 </tspan>
<tspan x="10" y="1498">  │ │ │     │ ├─┬ homedir-polyfill@1.0.1 </tspan>
<tspan x="10" y="1514">  │ │ │     │ │ └── parse-passwd@1.0.0 </tspan>
<tspan x="10" y="1530">  │ │ │     │ └── ini@1.3.4 </tspan>
<tspan x="10" y="1546">  │ │ │     └── is-windows@0.2.0 </tspan>
<tspan x="10" y="1562">  │ │ ├─┬ fined@1.0.2 </tspan>
<tspan x="10" y="1578">  │ │ │ ├── expand-tilde@1.2.2 </tspan>
<tspan x="10" y="1594">  │ │ │ ├── lodash.assignwith@4.2.0 </tspan>
<tspan x="10" y="1610">  │ │ │ ├── lodash.isempty@4.4.0 </tspan>
<tspan x="10" y="1626">  │ │ │ ├── lodash.pick@4.4.0 </tspan>
<tspan x="10" y="1642">  │ │ │ └─┬ parse-filepath@1.0.1 </tspan>
<tspan x="10" y="1658">  │ │ │   ├─┬ is-absolute@0.2.6 </tspan>
<tspan x="10" y="1674">  │ │ │   │ └─┬ is-relative@0.2.1 </tspan>
<tspan x="10" y="1690">  │ │ │   │   └─┬ is-unc-path@0.1.2 </tspan>
<tspan x="10" y="1706">  │ │ │   │     └── unc-path-regex@0.1.2 </tspan>
<tspan x="10" y="1722">  │ │ │   ├── map-cache@0.2.2 </tspan>
<tspan x="10" y="1738">  │ │ │   └─┬ path-root@0.1.1 </tspan>
<tspan x="10" y="1754">  │ │ │     └── path-root-regex@0.1.2 </tspan>
<tspan x="10" y="1770">  │ │ ├── flagged-respawn@0.3.2 </tspan>
<tspan x="10" y="1786">  │ │ ├── lodash.isplainobject@4.0.6 </tspan>
<tspan x="10" y="1802">  │ │ ├── lodash.isstring@4.0.1 </tspan>
<tspan x="10" y="1818">  │ │ ├── lodash.mapvalues@4.6.0 </tspan>
<tspan x="10" y="1834">  │ │ ├── rechoir@0.6.2 </tspan>
<tspan x="10" y="1850">  │ │ └─┬ resolve@1.3.2 </tspan>
<tspan x="10" y="1866">  │ │   └── path-parse@1.0.5 </tspan>
<tspan x="10" y="1882">  │ ├── minimist@1.2.0 </tspan>
<tspan x="10" y="1898">  │ ├─┬ orchestrator@0.3.8 </tspan>
<tspan x="10" y="1914">  │ │ ├─┬ end-of-stream@0.1.5 </tspan>
<tspan x="10" y="1930">  │ │ │ └── once@1.3.3 </tspan>
<tspan x="10" y="1946">  │ │ ├── sequencify@0.0.7 </tspan>
<tspan x="10" y="1962">  │ │ └── stream-consume@0.1.0 </tspan>
<tspan x="10" y="1978">  │ ├── pretty-hrtime@1.0.3 </tspan>
<tspan x="10" y="1994">  │ ├── semver@4.3.6 </tspan>
<tspan x="10" y="2010">  │ ├─┬ tildify@1.2.0 </tspan>
<tspan x="10" y="2026">  │ │ └── os-homedir@1.0.2 </tspan>
<tspan x="10" y="2042">  │ ├─┬ v8flags@2.0.12 </tspan>
<tspan x="10" y="2058">  │ │ └── user-home@1.1.1 </tspan>
<tspan x="10" y="2074">  │ └─┬ vinyl-fs@0.3.14 </tspan>
<tspan x="10" y="2090">  │   ├── defaults@1.0.3 </tspan>
<tspan x="10" y="2106">  │   ├─┬ glob-stream@3.1.18 </tspan>
<tspan x="10" y="2122">  │   │ ├─┬ glob2base@0.0.12 </tspan>
<tspan x="10" y="2138">  │   │ │ └── find-index@0.1.1 </tspan>
<tspan x="10" y="2154">  │   │ ├── ordered-read-streams@0.1.0 </tspan>
<tspan x="10" y="2170">  │   │ ├─┬ through2@0.6.5 </tspan>
<tspan x="10" y="2186">  │   │ │ └── readable-stream@1.0.34 </tspan>
<tspan x="10" y="2202">  │   │ └── unique-stream@1.0.0 </tspan>
<tspan x="10" y="2218">  │   ├─┬ glob-watcher@0.0.6 </tspan>
<tspan x="10" y="2234">  │   │ └─┬ gaze@0.5.2 </tspan>
<tspan x="10" y="2250">  │   │   └─┬ globule@0.1.0 </tspan>
<tspan x="10" y="2266">  │   │     ├─┬ glob@3.1.21 </tspan>
<tspan x="10" y="2282">  │   │     │ ├── graceful-fs@1.2.3 </tspan>
<tspan x="10" y="2298">  │   │     │ └── inherits@1.0.2 </tspan>
<tspan x="10" y="2314">  │   │     ├── lodash@1.0.2 </tspan>
<tspan x="10" y="2330">  │   │     └─┬ minimatch@0.2.14 </tspan>
<tspan x="10" y="2346">  │   │       ├── lru-cache@2.7.3 </tspan>
<tspan x="10" y="2362">  │   │       └── sigmund@1.0.1 </tspan>
<tspan x="10" y="2378">  │   ├─┬ graceful-fs@3.0.11 </tspan>
<tspan x="10" y="2394">  │   │ └── natives@1.1.0 </tspan>
<tspan x="10" y="2410">  │   ├─┬ strip-bom@1.0.0 </tspan>
<tspan x="10" y="2426">  │   │ ├── first-chunk-stream@1.0.0 </tspan>
<tspan x="10" y="2442">  │   │ └── is-utf8@0.2.1 </tspan>
<tspan x="10" y="2458">  │   ├─┬ through2@0.6.5 </tspan>
<tspan x="10" y="2474">  │   │ └── readable-stream@1.0.34 </tspan>
<tspan x="10" y="2490">  │   └─┬ vinyl@0.4.6 </tspan>
<tspan x="10" y="2506">  │     └── clone@0.2.0 </tspan>
<tspan x="10" y="2522">  ├── gulp-sass@2.1.1 </tspan>
<tspan x="10" y="2538">  ├─┬ gulp-svg2png@2.0.2 </tspan>
<tspan x="10" y="2554">  │ ├── map-stream@0.0.6 </tspan>
<tspan x="10" y="2570">  │ ├─┬ map-stream-limit@1.1.0 </tspan>
<tspan x="10" y="2586">  │ │ └── map-stream@0.0.3 </tspan>
<tspan x="10" y="2602">  │ └─┬ svg2png@3.1.1 </tspan>
<tspan x="10" y="2618">  │   ├── file-url@1.1.0 </tspan>
<tspan x="10" y="2634">  │   ├─┬ phantomjs-prebuilt@2.1.14 </tspan>
<tspan x="10" y="2650">  │   │ ├── es6-promise@4.0.5 </tspan>
<tspan x="10" y="2666">  │   │ ├─┬ extract-zip@1.5.0 </tspan>
<tspan x="10" y="2682">  │   │ │ ├─┬ concat-stream@1.5.0 </tspan>
<tspan x="10" y="2698">  │   │ │ │ ├─┬ readable-stream@2.0.6 </tspan>
<tspan x="10" y="2714">  │   │ │ │ │ └── isarray@1.0.0 </tspan>
<tspan x="10" y="2730">  │   │ │ │ └── typedarray@0.0.6 </tspan>
<tspan x="10" y="2746">  │   │ │ ├── debug@0.7.4 </tspan>
<tspan x="10" y="2762">  │   │ │ ├─┬ mkdirp@0.5.0 </tspan>
<tspan x="10" y="2778">  │   │ │ │ └── minimist@0.0.8 </tspan>
<tspan x="10" y="2794">  │   │ │ └─┬ yauzl@2.4.1 </tspan>
<tspan x="10" y="2810">  │   │ │   └─┬ fd-slicer@1.0.1 </tspan>
<tspan x="10" y="2826">  │   │ │     └── pend@1.2.0 </tspan>
<tspan x="10" y="2842">  │   │ ├─┬ fs-extra@1.0.0 </tspan>
<tspan x="10" y="2858">  │   │ │ ├── graceful-fs@4.1.11 </tspan>
<tspan x="10" y="2874">  │   │ │ ├─┬ jsonfile@2.4.0 </tspan>
<tspan x="10" y="2890">  │   │ │ │ └── graceful-fs@4.1.11 </tspan>
<tspan x="10" y="2906">  │   │ │ └─┬ klaw@1.3.1 </tspan>
<tspan x="10" y="2922">  │   │ │   └── graceful-fs@4.1.11 </tspan>
<tspan x="10" y="2938">  │   │ ├─┬ hasha@2.2.0 </tspan>
<tspan x="10" y="2954">  │   │ │ ├── is-stream@1.1.0 </tspan>
<tspan x="10" y="2970">  │   │ │ └─┬ pinkie-promise@2.0.1 </tspan>
<tspan x="10" y="2986">  │   │ │   └── pinkie@2.0.4 </tspan>
<tspan x="10" y="3002">  │   │ ├── kew@0.7.0 </tspan>
<tspan x="10" y="3018">  │   │ ├── progress@1.1.8 </tspan>
<tspan x="10" y="3034">  │   │ ├─┬ request@2.79.0 </tspan>
<tspan x="10" y="3050">  │   │ │ ├── caseless@0.11.0 </tspan>
<tspan x="10" y="3066">  │   │ │ ├─┬ har-validator@2.0.6 </tspan>
<tspan x="10" y="3082">  │   │ │ │ ├─┬ commander@2.9.0 </tspan>
<tspan x="10" y="3098">  │   │ │ │ │ └── graceful-readlink@1.0.1 </tspan>
<tspan x="10" y="3114">  │   │ │ │ └─┬ is-my-json-valid@2.16.0 </tspan>
<tspan x="10" y="3130">  │   │ │ │   ├── generate-function@2.0.0 </tspan>
<tspan x="10" y="3146">  │   │ │ │   ├─┬ generate-object-property@1.2.0 </tspan>
<tspan x="10" y="3162">  │   │ │ │   │ └── is-property@1.0.2 </tspan>
<tspan x="10" y="3178">  │   │ │ │   └── jsonpointer@4.0.1 </tspan>
<tspan x="10" y="3194">  │   │ │ ├── qs@6.3.2 </tspan>
<tspan x="10" y="3210">  │   │ │ └── tunnel-agent@0.4.3 </tspan>
<tspan x="10" y="3226">  │   │ └─┬ request-progress@2.0.1 </tspan>
<tspan x="10" y="3242">  │   │   └── throttleit@1.0.0 </tspan>
<tspan x="10" y="3258">  │   ├── pn@1.0.0 </tspan>
<tspan x="10" y="3274">  │   └─┬ yargs@5.0.0 </tspan>
<tspan x="10" y="3290">  │     ├─┬ cliui@3.2.0 </tspan>
<tspan x="10" y="3306">  │     │ └── wrap-ansi@2.1.0 </tspan>
<tspan x="10" y="3322">  │     ├── get-caller-file@1.0.2 </tspan>
<tspan x="10" y="3338">  │     ├─┬ os-locale@1.4.0 </tspan>
<tspan x="10" y="3354">  │     │ └─┬ lcid@1.0.0 </tspan>
<tspan x="10" y="3370">  │     │   └── invert-kv@1.0.0 </tspan>
<tspan x="10" y="3386">  │     ├── require-directory@2.1.1 </tspan>
<tspan x="10" y="3402">  │     ├── require-main-filename@1.0.1 </tspan>
<tspan x="10" y="3418">  │     ├─┬ string-width@1.0.2 </tspan>
<tspan x="10" y="3434">  │     │ ├── code-point-at@1.1.0 </tspan>
<tspan x="10" y="3450">  │     │ └─┬ is-fullwidth-code-point@1.0.0 </tspan>
<tspan x="10" y="3466">  │     │   └── number-is-nan@1.0.1 </tspan>
<tspan x="10" y="3482">  │     ├── which-module@1.0.0 </tspan>
<tspan x="10" y="3498">  │     ├── window-size@0.2.0 </tspan>
<tspan x="10" y="3514">  │     ├── y18n@3.2.1 </tspan>
<tspan x="10" y="3530">  │     └─┬ yargs-parser@3.2.0 </tspan>
<tspan x="10" y="3546">  │       └── camelcase@3.0.0 </tspan>
<tspan x="10" y="3562">  ├─┬ gulp-util@3.0.8 </tspan>
<tspan x="10" y="3578">  │ ├── array-differ@1.0.0 </tspan>
<tspan x="10" y="3594">  │ ├── array-uniq@1.0.3 </tspan>
<tspan x="10" y="3610">  │ ├── beeper@1.1.1 </tspan>
<tspan x="10" y="3626">  │ ├── dateformat@2.0.0 </tspan>
<tspan x="10" y="3642">  │ ├─┬ fancy-log@1.3.0 </tspan>
<tspan x="10" y="3658">  │ │ └── time-stamp@1.0.1 </tspan>
<tspan x="10" y="3674">  │ ├─┬ gulplog@1.0.0 </tspan>
<tspan x="10" y="3690">  │ │ └── glogg@1.0.0 </tspan>
<tspan x="10" y="3706">  │ ├─┬ has-gulplog@0.1.0 </tspan>
<tspan x="10" y="3722">  │ │ └── sparkles@1.0.0 </tspan>
<tspan x="10" y="3738">  │ ├── lodash._reescape@3.0.0 </tspan>
<tspan x="10" y="3754">  │ ├── lodash._reevaluate@3.0.0 </tspan>
<tspan x="10" y="3770">  │ ├── lodash._reinterpolate@3.0.0 </tspan>
<tspan x="10" y="3786">  │ ├─┬ lodash.template@3.6.2 </tspan>
<tspan x="10" y="3802">  │ │ ├── lodash._basecopy@3.0.1 </tspan>
<tspan x="10" y="3818">  │ │ ├── lodash._basetostring@3.0.1 </tspan>
<tspan x="10" y="3834">  │ │ ├── lodash._basevalues@3.0.0 </tspan>
<tspan x="10" y="3850">  │ │ ├── lodash._isiterateecall@3.0.9 </tspan>
<tspan x="10" y="3866">  │ │ ├─┬ lodash.escape@3.2.0 </tspan>
<tspan x="10" y="3882">  │ │ │ └── lodash._root@3.0.1 </tspan>
<tspan x="10" y="3898">  │ │ ├─┬ lodash.keys@3.1.2 </tspan>
<tspan x="10" y="3914">  │ │ │ ├── lodash._getnative@3.9.1 </tspan>
<tspan x="10" y="3930">  │ │ │ ├── lodash.isarguments@3.1.0 </tspan>
<tspan x="10" y="3946">  │ │ │ └── lodash.isarray@3.0.4 </tspan>
<tspan x="10" y="3962">  │ │ ├── lodash.restparam@3.6.1 </tspan>
<tspan x="10" y="3978">  │ │ └── lodash.templatesettings@3.1.1 </tspan>
<tspan x="10" y="3994">  │ ├─┬ multipipe@0.1.2 </tspan>
<tspan x="10" y="4010">  │ │ └── duplexer2@0.0.2 </tspan>
<tspan x="10" y="4026">  │ ├── object-assign@3.0.0 </tspan>
<tspan x="10" y="4042">  │ ├── replace-ext@0.0.1 </tspan>
<tspan x="10" y="4058">  │ └─┬ vinyl@0.5.3 </tspan>
<tspan x="10" y="4074">  │   ├── clone@1.0.2 </tspan>
<tspan x="10" y="4090">  │   └── clone-stats@0.0.1 </tspan>
<tspan x="10" y="4106">  ├─┬ imacss@0.3.0 </tspan>
<tspan x="10" y="4122">  │ ├─┬ slug@0.5.0 </tspan>
<tspan x="10" y="4138">  │ │ └── unicode@9.0.1 </tspan>
<tspan x="10" y="4154">  │ ├─┬ through2@1.1.1 </tspan>
<tspan x="10" y="4170">  │ │ └─┬ readable-stream@1.1.14 </tspan>
<tspan x="10" y="4186">  │ │   └── isarray@0.0.1 </tspan>
<tspan x="10" y="4202">  │ └─┬ vinyl-fs@0.3.6 </tspan>
<tspan x="10" y="4218">  │   ├── lodash@2.4.2 </tspan>
<tspan x="10" y="4234">  │   ├─┬ strip-bom@0.3.1 </tspan>
<tspan x="10" y="4250">  │   │ └── first-chunk-stream@0.1.0 </tspan>
<tspan x="10" y="4266">  │   ├─┬ through2@0.5.1 </tspan>
<tspan x="10" y="4282">  │   │ ├── readable-stream@1.0.34 </tspan>
<tspan x="10" y="4298">  │   │ └── xtend@3.0.0 </tspan>
<tspan x="10" y="4314">  │   └── vinyl@0.3.3 </tspan>
<tspan x="10" y="4330">  ├── mustache@2.0.0 </tspan>
<tspan x="10" y="4346">  ├─┬ node-sass@3.13.1 </tspan>
<tspan x="10" y="4362">  │ ├── async-foreach@0.1.3 </tspan>
<tspan x="10" y="4378">  │ ├─┬ cross-spawn@3.0.1 </tspan>
<tspan x="10" y="4394">  │ │ ├─┬ lru-cache@4.0.2 </tspan>
<tspan x="10" y="4410">  │ │ │ ├── pseudomap@1.0.2 </tspan>
<tspan x="10" y="4426">  │ │ │ └── yallist@2.1.2 </tspan>
<tspan x="10" y="4442">  │ │ └─┬ which@1.2.14 </tspan>
<tspan x="10" y="4458">  │ │   └── isexe@2.0.0 </tspan>
<tspan x="10" y="4474">  │ ├─┬ gaze@1.1.2 </tspan>
<tspan x="10" y="4490">  │ │ └─┬ globule@1.1.0 </tspan>
<tspan x="10" y="4506">  │ │   └── lodash@4.16.6 </tspan>
<tspan x="10" y="4522">  │ ├── get-stdin@4.0.1 </tspan>
<tspan x="10" y="4538">  │ ├─┬ glob@7.1.1 </tspan>
<tspan x="10" y="4554">  │ │ ├── fs.realpath@1.0.0 </tspan>
<tspan x="10" y="4570">  │ │ ├─┬ inflight@1.0.6 </tspan>
<tspan x="10" y="4586">  │ │ │ └── wrappy@1.0.2 </tspan>
<tspan x="10" y="4602">  │ │ ├── inherits@2.0.3 </tspan>
<tspan x="10" y="4618">  │ │ ├── minimatch@3.0.3 </tspan>
<tspan x="10" y="4634">  │ │ ├── once@1.4.0 </tspan>
<tspan x="10" y="4650">  │ │ └── path-is-absolute@1.0.1 </tspan>
<tspan x="10" y="4666">  │ ├── in-publish@2.0.0 </tspan>
<tspan x="10" y="4682">  │ ├── lodash.assign@4.2.0 </tspan>
<tspan x="10" y="4698">  │ ├── lodash.clonedeep@4.5.0 </tspan>
<tspan x="10" y="4714">  │ ├─┬ meow@3.7.0 </tspan>
<tspan x="10" y="4730">  │ │ ├─┬ camelcase-keys@2.1.0 </tspan>
<tspan x="10" y="4746">  │ │ │ └── camelcase@2.1.1 </tspan>
<tspan x="10" y="4762">  │ │ ├── decamelize@1.2.0 </tspan>
<tspan x="10" y="4778">  │ │ ├─┬ loud-rejection@1.6.0 </tspan>
<tspan x="10" y="4794">  │ │ │ ├─┬ currently-unhandled@0.4.1 </tspan>
<tspan x="10" y="4810">  │ │ │ │ └── array-find-index@1.0.2 </tspan>
<tspan x="10" y="4826">  │ │ │ └── signal-exit@3.0.2 </tspan>
<tspan x="10" y="4842">  │ │ ├── map-obj@1.0.1 </tspan>
<tspan x="10" y="4858">  │ │ ├─┬ normalize-package-data@2.3.6 </tspan>
<tspan x="10" y="4874">  │ │ │ ├── hosted-git-info@2.4.1 </tspan>
<tspan x="10" y="4890">  │ │ │ ├─┬ is-builtin-module@1.0.0 </tspan>
<tspan x="10" y="4906">  │ │ │ │ └── builtin-modules@1.1.1 </tspan>
<tspan x="10" y="4922">  │ │ │ └─┬ validate-npm-package-license@3.0.1 </tspan>
<tspan x="10" y="4938">  │ │ │   ├─┬ spdx-correct@1.0.2 </tspan>
<tspan x="10" y="4954">  │ │ │   │ └── spdx-license-ids@1.2.2 </tspan>
<tspan x="10" y="4970">  │ │ │   └── spdx-expression-parse@1.0.4 </tspan>
<tspan x="10" y="4986">  │ │ ├─┬ read-pkg-up@1.0.1 </tspan>
<tspan x="10" y="5002">  │ │ │ ├─┬ find-up@1.1.2 </tspan>
<tspan x="10" y="5018">  │ │ │ │ └── path-exists@2.1.0 </tspan>
<tspan x="10" y="5034">  │ │ │ └─┬ read-pkg@1.1.0 </tspan>
<tspan x="10" y="5050">  │ │ │   ├─┬ load-json-file@1.1.0 </tspan>
<tspan x="10" y="5066">  │ │ │   │ ├── graceful-fs@4.1.11 </tspan>
<tspan x="10" y="5082">  │ │ │   │ ├─┬ parse-json@2.2.0 </tspan>
<tspan x="10" y="5098">  │ │ │   │ │ └─┬ error-ex@1.3.1 </tspan>
<tspan x="10" y="5114">  │ │ │   │ │   └── is-arrayish@0.2.1 </tspan>
<tspan x="10" y="5130">  │ │ │   │ ├── pify@2.3.0 </tspan>
<tspan x="10" y="5146">  │ │ │   │ └── strip-bom@2.0.0 </tspan>
<tspan x="10" y="5162">  │ │ │   └─┬ path-type@1.1.0 </tspan>
<tspan x="10" y="5178">  │ │ │     └── graceful-fs@4.1.11 </tspan>
<tspan x="10" y="5194">  │ │ ├─┬ redent@1.0.0 </tspan>
<tspan x="10" y="5210">  │ │ │ ├─┬ indent-string@2.1.0 </tspan>
<tspan x="10" y="5226">  │ │ │ │ └─┬ repeating@2.0.1 </tspan>
<tspan x="10" y="5242">  │ │ │ │   └── is-finite@1.0.2 </tspan>
<tspan x="10" y="5258">  │ │ │ └── strip-indent@1.0.1 </tspan>
<tspan x="10" y="5274">  │ │ └── trim-newlines@1.0.0 </tspan>
<tspan x="10" y="5290">  │ ├─┬ mkdirp@0.5.1 </tspan>
<tspan x="10" y="5306">  │ │ └── minimist@0.0.8 </tspan>
<tspan x="10" y="5322">  │ ├── nan@2.6.1 </tspan>
<tspan x="10" y="5338">  │ ├─┬ node-gyp@3.6.0 </tspan>
<tspan x="10" y="5354">  │ │ ├─┬ fstream@1.0.11 </tspan>
<tspan x="10" y="5370">  │ │ │ └── graceful-fs@4.1.11 </tspan>
<tspan x="10" y="5386">  │ │ ├── glob@7.1.1 </tspan>
<tspan x="10" y="5402">  │ │ ├── graceful-fs@4.1.11 </tspan>
<tspan x="10" y="5418">  │ │ ├─┬ minimatch@3.0.3 </tspan>
<tspan x="10" y="5434">  │ │ │ └─┬ brace-expansion@1.1.6 </tspan>
<tspan x="10" y="5450">  │ │ │   ├── balanced-match@0.4.2 </tspan>
<tspan x="10" y="5466">  │ │ │   └── concat-map@0.0.1 </tspan>
<tspan x="10" y="5482">  │ │ ├─┬ nopt@3.0.6 </tspan>
<tspan x="10" y="5498">  │ │ │ └── abbrev@1.1.0 </tspan>
<tspan x="10" y="5514">  │ │ ├─┬ osenv@0.1.4 </tspan>
<tspan x="10" y="5530">  │ │ │ └── os-tmpdir@1.0.2 </tspan>
<tspan x="10" y="5546">  │ │ ├── semver@5.3.0 </tspan>
<tspan x="10" y="5562">  │ │ └─┬ tar@2.2.1 </tspan>
<tspan x="10" y="5578">  │ │   └── block-stream@0.0.9 </tspan>
<tspan x="10" y="5594">  │ ├─┬ npmlog@4.0.2 </tspan>
<tspan x="10" y="5610">  │ │ ├─┬ are-we-there-yet@1.1.2 </tspan>
<tspan x="10" y="5626">  │ │ │ └── delegates@1.0.0 </tspan>
<tspan x="10" y="5642">  │ │ ├── console-control-strings@1.1.0 </tspan>
<tspan x="10" y="5658">  │ │ ├─┬ gauge@2.7.3 </tspan>
<tspan x="10" y="5674">  │ │ │ ├── aproba@1.1.1 </tspan>
<tspan x="10" y="5690">  │ │ │ ├── has-unicode@2.0.1 </tspan>
<tspan x="10" y="5706">  │ │ │ └── wide-align@1.1.0 </tspan>
<tspan x="10" y="5722">  │ │ └── set-blocking@2.0.0 </tspan>
<tspan x="10" y="5738">  │ ├─┬ request@2.81.0 </tspan>
<tspan x="10" y="5754">  │ │ ├── aws-sign2@0.6.0 </tspan>
<tspan x="10" y="5770">  │ │ ├── aws4@1.6.0 </tspan>
<tspan x="10" y="5786">  │ │ ├── caseless@0.12.0 </tspan>
<tspan x="10" y="5802">  │ │ ├─┬ combined-stream@1.0.5 </tspan>
<tspan x="10" y="5818">  │ │ │ └── delayed-stream@1.0.0 </tspan>
<tspan x="10" y="5834">  │ │ ├── forever-agent@0.6.1 </tspan>
<tspan x="10" y="5850">  │ │ ├─┬ form-data@2.1.2 </tspan>
<tspan x="10" y="5866">  │ │ │ └── asynckit@0.4.0 </tspan>
<tspan x="10" y="5882">  │ │ ├─┬ har-validator@4.2.1 </tspan>
<tspan x="10" y="5898">  │ │ │ ├─┬ ajv@4.11.5 </tspan>
<tspan x="10" y="5914">  │ │ │ │ ├── co@4.6.0 </tspan>
<tspan x="10" y="5930">  │ │ │ │ └─┬ json-stable-stringify@1.0.1 </tspan>
<tspan x="10" y="5946">  │ │ │ │   └── jsonify@0.0.0 </tspan>
<tspan x="10" y="5962">  │ │ │ └── har-schema@1.0.5 </tspan>
<tspan x="10" y="5978">  │ │ ├─┬ hawk@3.1.3 </tspan>
<tspan x="10" y="5994">  │ │ │ ├── boom@2.10.1 </tspan>
<tspan x="10" y="6010">  │ │ │ ├── cryptiles@2.0.5 </tspan>
<tspan x="10" y="6026">  │ │ │ ├── hoek@2.16.3 </tspan>
<tspan x="10" y="6042">  │ │ │ └── sntp@1.0.9 </tspan>
<tspan x="10" y="6058">  │ │ ├─┬ http-signature@1.1.1 </tspan>
<tspan x="10" y="6074">  │ │ │ ├── assert-plus@0.2.0 </tspan>
<tspan x="10" y="6090">  │ │ │ ├─┬ jsprim@1.4.0 </tspan>
<tspan x="10" y="6106">  │ │ │ │ ├── assert-plus@1.0.0 </tspan>
<tspan x="10" y="6122">  │ │ │ │ ├── extsprintf@1.0.2 </tspan>
<tspan x="10" y="6138">  │ │ │ │ ├── json-schema@0.2.3 </tspan>
<tspan x="10" y="6154">  │ │ │ │ └── verror@1.3.6 </tspan>
<tspan x="10" y="6170">  │ │ │ └─┬ sshpk@1.11.0 </tspan>
<tspan x="10" y="6186">  │ │ │   ├── asn1@0.2.3 </tspan>
<tspan x="10" y="6202">  │ │ │   ├── assert-plus@1.0.0 </tspan>
<tspan x="10" y="6218">  │ │ │   ├── bcrypt-pbkdf@1.0.1 </tspan>
<tspan x="10" y="6234">  │ │ │   ├─┬ dashdash@1.14.1 </tspan>
<tspan x="10" y="6250">  │ │ │   │ └── assert-plus@1.0.0 </tspan>
<tspan x="10" y="6266">  │ │ │   ├── ecc-jsbn@0.1.1 </tspan>
<tspan x="10" y="6282">  │ │ │   ├─┬ getpass@0.1.6 </tspan>
<tspan x="10" y="6298">  │ │ │   │ └── assert-plus@1.0.0 </tspan>
<tspan x="10" y="6314">  │ │ │   ├── jodid25519@1.0.2 </tspan>
<tspan x="10" y="6330">  │ │ │   ├── jsbn@0.1.1 </tspan>
<tspan x="10" y="6346">  │ │ │   └── tweetnacl@0.14.5 </tspan>
<tspan x="10" y="6362">  │ │ ├── is-typedarray@1.0.0 </tspan>
<tspan x="10" y="6378">  │ │ ├── isstream@0.1.2 </tspan>
<tspan x="10" y="6394">  │ │ ├── json-stringify-safe@5.0.1 </tspan>
<tspan x="10" y="6410">  │ │ ├─┬ mime-types@2.1.15 </tspan>
<tspan x="10" y="6426">  │ │ │ └── mime-db@1.27.0 </tspan>
<tspan x="10" y="6442">  │ │ ├── oauth-sign@0.8.2 </tspan>
<tspan x="10" y="6458">  │ │ ├── performance-now@0.2.0 </tspan>
<tspan x="10" y="6474">  │ │ ├── qs@6.4.0 </tspan>
<tspan x="10" y="6490">  │ │ ├── safe-buffer@5.0.1 </tspan>
<tspan x="10" y="6506">  │ │ ├── stringstream@0.0.5 </tspan>
<tspan x="10" y="6522">  │ │ ├─┬ tough-cookie@2.3.2 </tspan>
<tspan x="10" y="6538">  │ │ │ └── punycode@1.4.1 </tspan>
<tspan x="10" y="6554">  │ │ └── tunnel-agent@0.6.0 </tspan>
<tspan x="10" y="6570">  │ └─┬ sass-graph@2.1.2 </tspan>
<tspan x="10" y="6586">  │   ├─┬ glob@7.1.1 </tspan>
<tspan x="10" y="6602">  │   │ └── minimatch@3.0.3 </tspan>
<tspan x="10" y="6618">  │   └─┬ yargs@4.8.1 </tspan>
<tspan x="10" y="6634">  │     └─┬ yargs-parser@2.4.1 </tspan>
<tspan x="10" y="6650">  │       └── camelcase@3.0.0 </tspan>
<tspan x="10" y="6666">  ├── object-assign@4.1.1 </tspan>
<tspan x="10" y="6682">  ├─┬ path@0.12.7 </tspan>
<tspan x="10" y="6698">  │ ├── process@0.11.9 </tspan>
<tspan x="10" y="6714">  │ └─┬ util@0.10.3 </tspan>
<tspan x="10" y="6730">  │   └── inherits@2.0.1 </tspan>
<tspan x="10" y="6746">  ├─┬ svgo@0.5.6 </tspan>
<tspan x="10" y="6762">  │ ├─┬ coa@1.0.1 </tspan>
<tspan x="10" y="6778">  │ │ └── q@1.5.0 </tspan>
<tspan x="10" y="6794">  │ ├── colors@1.1.2 </tspan>
<tspan x="10" y="6810">  │ ├─┬ js-yaml@3.3.1 </tspan>
<tspan x="10" y="6826">  │ │ ├─┬ argparse@1.0.9 </tspan>
<tspan x="10" y="6842">  │ │ │ └── sprintf-js@1.0.3 </tspan>
<tspan x="10" y="6858">  │ │ └── esprima@2.2.0 </tspan>
<tspan x="10" y="6874">  │ ├── sax@1.1.6 </tspan>
<tspan x="10" y="6890">  │ └── whet.extend@0.9.9 </tspan>
<tspan x="10" y="6906">  ├── through@2.3.8 </tspan>
<tspan x="10" y="6922">  ├─┬ through2@2.0.3 </tspan>
<tspan x="10" y="6938">  │ ├─┬ readable-stream@2.2.6 </tspan>
<tspan x="10" y="6954">  │ │ ├── buffer-shims@1.0.0 </tspan>
<tspan x="10" y="6970">  │ │ ├── core-util-is@1.0.2 </tspan>
<tspan x="10" y="6986">  │ │ ├── isarray@1.0.0 </tspan>
<tspan x="10" y="7002">  │ │ ├── process-nextick-args@1.0.7 </tspan>
<tspan x="10" y="7018">  │ │ ├── string_decoder@0.10.31 </tspan>
<tspan x="10" y="7034">  │ │ └── util-deprecate@1.0.2 </tspan>
<tspan x="10" y="7050">  │ └── xtend@4.0.1 </tspan>
<tspan x="10" y="7066">  ├─┬ vinyl-sourcemaps-apply@0.2.1 </tspan>
<tspan x="10" y="7082">  │ └── source-map@0.5.6 </tspan>
<tspan x="10" y="7098">  └── xmldom@0.1.27</tspan>
</text>
</svg>
